<?xml version="1.0" encoding="utf-8"?>
<!-- Generator: Adobe Illustrator 17.1.0, SVG Export Plug-In . SVG Version: 6.00 Build 0)  -->
<!DOCTYPE svg PUBLIC "-//W3C//DTD SVG 1.1//EN" "http://www.w3.org/Graphics/SVG/1.1/DTD/svg11.dtd">
<svg width="299px" height="48px" version="1.1" id="Layer_1" xmlns="http://www.w3.org/2000/svg" xmlns:xlink="http://www.w3.org/1999/xlink" x="0px" y="0px"
	 viewBox="0 0 299 48" enable-background="new 0 0 299 48" xml:space="preserve">
<title>logo-with-line</title>
<desc>Created with Sketch.</desc>
<g id="Page-1">
	<g id="logo-with-line">
		<path id="Line" fill="none" stroke="#CCCCCC" stroke-linecap="square" d="M0,40.5h299"/>
	</g>
</g>
<g id="Page-1_1_">
	<g id="logo-with-line_1_">
		<g id="rei-garage-logo-sm_1_" transform="translate(0.000000, 1.000000)">
			<g id="Group_1_">
				<path fill="#00718D" d="M2.4,23.1H0.6c-0.3,0-0.6-0.3-0.6-0.6V1.8c0-0.3,0.3-0.6,0.6-0.6h1.7C2.7,1.2,3,1.5,3,1.8v20.6
					C3,22.7,2.8,23.1,2.4,23.1z M9.8,22.5l-3.7-7.8C6,14.3,6,14.1,6,13.7V12c0-0.3,0.3-0.6,0.6-0.6c1.9,0,3.5-1.6,3.5-3.6
					S8.5,4.2,6.6,4.2C6.3,4.2,6,3.9,6,3.5V1.8c0-0.3,0.3-0.6,0.6-0.6c3.6,0,6.6,2.9,6.6,6.6c0,2.4-1.3,4.5-3.3,5.7
					c-0.6,0.3-0.8,0.6-0.5,1.1l3.7,7.6c0.2,0.5,0,0.9-0.6,0.9h-1.8C10.2,23.1,10,22.8,9.8,22.5z M23.9,10.1c0,0.2,0.1,0.3,0.3,0.3
					h7.4c0.3,0,0.6,0.3,0.6,0.6v1.7c0,0.3-0.3,0.6-0.6,0.6h-7.4c-0.2,0-0.3,0.1-0.3,0.3v6.1c0,0.2,0.1,0.3,0.3,0.3H32
					c0.3,0,0.6,0.3,0.6,0.6v1.7c0,0.3-0.3,0.6-0.6,0.6H21.5c-0.3,0-0.6-0.3-0.6-0.6V1.8c0-0.3,0.3-0.6,0.6-0.6H32
					c0.3,0,0.6,0.3,0.6,0.6v1.7c0,0.3-0.3,0.6-0.6,0.6h-7.8c-0.2,0-0.3,0.1-0.3,0.3C23.9,4.5,23.9,10.1,23.9,10.1z M44.3,4.2
					c0-0.2-0.1-0.3-0.3-0.3h-3.4c-0.3,0-0.6-0.3-0.6-0.6V1.8c0-0.3,0.3-0.6,0.6-0.6H51c0.3,0,0.6,0.3,0.6,0.6v1.5
					c0,0.3-0.3,0.6-0.6,0.6h-3.4c-0.2,0-0.3,0.1-0.3,0.3V20c0,0.2,0.1,0.3,0.3,0.3h3.8c0.3,0,0.6,0.3,0.6,0.6v1.5
					c0,0.3-0.3,0.6-0.6,0.6H40.2c-0.3,0-0.6-0.3-0.6-0.6V21c0-0.3,0.3-0.6,0.6-0.6H44c0.2,0,0.3-0.1,0.3-0.3
					C44.3,20,44.3,4.2,44.3,4.2z M74.8,12.4c0-2.3,0.1-4.9,0.7-6.1c0.5-1,1-1.5,1.8-1.8c0.3-0.2,0.6-0.3,0.6-0.7V1.7
					c0-0.3-0.2-0.5-0.5-0.5c-0.4,0-1.3,0.3-2.2,0.8c-0.9,0.7-1.9,1.6-2.6,3.3s-0.9,4.1-0.9,7s0.2,5.3,0.9,7c0.7,1.7,1.7,2.7,2.6,3.3
					c0.9,0.6,1.8,0.8,2.2,0.8c0.3,0,0.5-0.2,0.5-0.5V21c0-0.3-0.3-0.5-0.6-0.7c-0.8-0.4-1.3-0.8-1.8-1.8
					C74.9,17.3,74.8,14.7,74.8,12.4z M83.2,12.4c0,2.3-0.1,4.9-0.7,6.1c-0.5,1-1,1.5-1.8,1.8c-0.3,0.2-0.6,0.3-0.6,0.7v2.1
					c0,0.3,0.2,0.5,0.5,0.5c0.4,0,1.3-0.3,2.2-0.8c0.9-0.7,1.9-1.6,2.6-3.3c0.7-1.7,0.9-4.1,0.9-7s-0.2-5.3-0.9-7
					c-0.7-1.7-1.7-2.7-2.6-3.3S81,1.4,80.6,1.4c-0.3,0-0.5,0.2-0.5,0.5V4c0,0.3,0.3,0.5,0.6,0.7c0.8,0.4,1.3,0.8,1.8,1.8
					C83,7.5,83.2,10.1,83.2,12.4z M95.9,16.8v-15c0-0.3-0.3-0.6-0.6-0.6h-1.7c-0.3,0-0.6,0.3-0.6,0.6v15c0,3.8,3,6.5,7.1,6.5
					c3.8,0,7.1-2.8,7.1-6.5v-15c0-0.3-0.3-0.6-0.6-0.6h-1.7c-0.3,0-0.6,0.3-0.6,0.6v15c0,2-1.7,3.5-4.1,3.5
					C98,20.4,95.9,19.3,95.9,16.8z M114.4,4.2h4.2c0.2,0,0.3,0.1,0.3,0.3v18c0,0.3,0.3,0.6,0.6,0.6h1.7c0.3,0,0.6-0.3,0.6-0.6v-18
					c0-0.2,0.1-0.3,0.3-0.3h4.1c0.3,0,0.6-0.3,0.6-0.6V1.8c0-0.3-0.3-0.6-0.6-0.6h-11.9c-0.3,0-0.6,0.3-0.6,0.6v1.7
					C113.8,3.9,114,4.2,114.4,4.2L114.4,4.2z M138.4,19.8v-18c0-0.3-0.3-0.6-0.6-0.6H136c-0.3,0-0.6,0.3-0.6,0.6v20.6
					c0,0.3,0.3,0.6,0.6,0.6h10.3c0.3,0,0.6-0.3,0.6-0.6v-1.7c0-0.3-0.3-0.6-0.6-0.6h-7.7C138.5,20.1,138.4,20,138.4,19.8z
					 M158.6,10.1V4.5c0-0.2,0.1-0.3,0.3-0.3h7.8c0.3,0,0.6-0.3,0.6-0.6V1.8c0-0.3-0.3-0.6-0.6-0.6h-10.4c-0.3,0-0.6,0.3-0.6,0.6
					v20.6c0,0.3,0.3,0.6,0.6,0.6h10.5c0.3,0,0.6-0.3,0.6-0.6v-1.7c0-0.3-0.3-0.6-0.6-0.6H159c-0.2,0-0.3-0.1-0.3-0.3v-6.1
					c0-0.2,0.1-0.3,0.3-0.3h7.4c0.3,0,0.6-0.3,0.6-0.6v-1.7c0-0.3-0.3-0.6-0.6-0.6H159C158.7,10.4,158.6,10.3,158.6,10.1L158.6,10.1
					z M174.9,4.2h4.2c0.2,0,0.3,0.1,0.3,0.3v18c0,0.3,0.3,0.6,0.6,0.6h1.7c0.3,0,0.6-0.3,0.6-0.6v-18c0-0.2,0.1-0.3,0.3-0.3h4.1
					c0.3,0,0.6-0.3,0.6-0.6V1.8c0-0.3-0.3-0.6-0.6-0.6h-11.9c-0.3,0-0.6,0.3-0.6,0.6v1.7C174.2,3.9,174.5,4.2,174.9,4.2L174.9,4.2z"
					/>
			</g>
		</g>
	</g>
</g>
</svg>
